<svg width="11" height="12" viewBox="0 0 11 12" fill="none" xmlns="http://www.w3.org/2000/svg">
<g id="Group">
<path id="Vector" d="M5.5 11C6.15673 11.0008 6.80716 10.8719 7.4139 10.6206C8.02064 10.3692 8.57173 10.0005 9.0355 9.5355C9.50049 9.07173 9.86925 8.52064 10.1206 7.9139C10.3719 7.30716 10.5008 6.65673 10.5 6C10.5008 5.34327 10.3719 4.69285 10.1206 4.08611C9.86923 3.47937 9.50048 2.92828 9.0355 2.4645C8.57173 1.99951 8.02064 1.63075 7.4139 1.37943C6.80716 1.1281 6.15673 0.999153 5.5 1C4.84327 0.999167 4.19285 1.12812 3.58611 1.37944C2.97937 1.63077 2.42828 1.99952 1.9645 2.4645C1.49952 2.92828 1.13077 3.47937 0.879444 4.08611C0.628117 4.69285 0.499167 5.34327 0.500004 6C0.499153 6.65673 0.628097 7.30716 0.879425 7.9139C1.13075 8.52064 1.49951 9.07173 1.9645 9.5355C2.42828 10.0005 2.97937 10.3692 3.58611 10.6206C4.19285 10.8719 4.84327 11.0008 5.5 11Z" stroke="#FFED00" stroke-linejoin="round"/>
<path id="Vector_2" d="M3.5 6L5 7.5L8 4.5" stroke="#FFED00" stroke-linecap="round" stroke-linejoin="round"/>
</g>
</svg>
