<svg width="28" height="30" viewBox="0 0 28 30" fill="none" xmlns="http://www.w3.org/2000/svg">
<path id="Vector" d="M1.52 8.58578C2.70859 6.21899 4.53196 4.22937 6.78633 2.83931C9.0407 1.44925 11.6372 0.713522 14.2857 0.714356C18.1357 0.714356 21.37 2.13007 23.8429 4.43578L19.7471 8.53293C18.2657 7.11721 16.3829 6.39578 14.2857 6.39578C10.5643 6.39578 7.41429 8.91007 6.29286 12.2858C6.00714 13.1429 5.84429 14.0572 5.84429 15.0001C5.84429 15.9429 6.00714 16.8572 6.29286 17.7144C7.41572 21.0915 10.5643 23.6044 14.2857 23.6044C16.2071 23.6044 17.8429 23.0972 19.1229 22.2401C19.8649 21.7515 20.5002 21.1175 20.9903 20.3765C21.4804 19.6354 21.8151 18.8027 21.9743 17.9286H14.2857V12.4029H27.74C27.9086 13.3372 28 14.3115 28 15.3244C28 19.6758 26.4429 23.3386 23.74 25.8244C21.3771 28.0072 18.1429 29.2858 14.2857 29.2858C12.4095 29.2865 10.5515 28.9175 8.81792 28.1999C7.08436 27.4822 5.50922 26.43 4.18251 25.1033C2.85581 23.7766 1.80357 22.2014 1.08591 20.4679C0.368248 18.7343 -0.000749802 16.8763 1.14388e-06 15.0001C1.14388e-06 12.6944 0.55143 10.5144 1.52 8.58578Z" fill="#0D0B0B"/>
</svg>
