<svg width="13" height="12" viewBox="0 0 13 12" fill="none" xmlns="http://www.w3.org/2000/svg">
<path d="M0.827723 0C0.370585 0 0 0.370584 0 0.827723C0 1.28486 0.370584 1.65545 0.827723 1.65545H11.48C11.9371 1.65545 12.3077 1.28486 12.3077 0.827723C12.3077 0.370584 11.9371 0 11.48 0H0.827723ZM0.827723 4.91668C0.370585 4.91668 0 5.28726 0 5.7444C0 6.20154 0.370584 6.57212 0.827723 6.57212H11.48C11.9371 6.57212 12.3077 6.20154 12.3077 5.7444C12.3077 5.28726 11.9371 4.91668 11.48 4.91668H0.827723ZM0.827723 9.88301C0.370585 9.88301 0 10.2536 0 10.7107C0 11.1679 0.370584 11.5385 0.827723 11.5385H11.48C11.9371 11.5385 12.3077 11.1679 12.3077 10.7107C12.3077 10.2536 11.9371 9.88301 11.48 9.88301H0.827723Z" fill="#FFED00"/>
</svg>
